<svg width="78" height="78" viewBox="0 0 78 78" fill="none" xmlns="http://www.w3.org/2000/svg">
<path d="M68.1667 76.5H9.83333C7.6232 76.5 5.50358 75.622 3.94078 74.0592C2.37797 72.4964 1.5 70.3768 1.5 68.1667V9.83333C1.5 7.6232 2.37797 5.50358 3.94078 3.94078C5.50358 2.37797 7.6232 1.5 9.83333 1.5H68.1667C70.3768 1.5 72.4964 2.37797 74.0592 3.94078C75.622 5.50358 76.5 7.6232 76.5 9.83333V68.1667C76.5 70.3768 75.622 72.4964 74.0592 74.0592C72.4964 75.622 70.3768 76.5 68.1667 76.5Z" stroke="#A5FF32" stroke-width="1.5"/>
<path d="M1.5 51.5H28.1667C29.5458 51.5 30.6875 52.6583 31.2917 53.9C32.15 55.6625 34.1833 57.75 39 57.75C43.8167 57.75 45.85 55.6667 46.7083 53.9C47.3125 52.6583 48.4542 51.5 49.8333 51.5H76.5M1.5 18.1667H76.5M1.5 34.8333H76.5" stroke="#A5FF32" stroke-width="1.5"/>
</svg>
