<svg width="14" height="14" viewBox="0 0 14 14" fill="none" xmlns="http://www.w3.org/2000/svg">
<path d="M13 7.99799H8V12.998C8 13.2632 7.89464 13.5176 7.70711 13.7051C7.51957 13.8926 7.26522 13.998 7 13.998C6.73478 13.998 6.48043 13.8926 6.29289 13.7051C6.10536 13.5176 6 13.2632 6 12.998V7.99799H1C0.734784 7.99799 0.48043 7.89263 0.292893 7.70509C0.105357 7.51756 0 7.2632 0 6.99799C0 6.73277 0.105357 6.47842 0.292893 6.29088C0.48043 6.10334 0.734784 5.99799 1 5.99799H6V0.997986C6 0.732769 6.10536 0.478415 6.29289 0.290879C6.48043 0.103342 6.73478 -0.00201416 7 -0.00201416C7.26522 -0.00201416 7.51957 0.103342 7.70711 0.290879C7.89464 0.478415 8 0.732769 8 0.997986V5.99799H13C13.2652 5.99799 13.5196 6.10334 13.7071 6.29088C13.8946 6.47842 14 6.73277 14 6.99799C14 7.2632 13.8946 7.51756 13.7071 7.70509C13.5196 7.89263 13.2652 7.99799 13 7.99799Z" fill="#12C2E9"/>
</svg>
