<svg width="20" height="16" viewBox="0 0 20 16" fill="none" xmlns="http://www.w3.org/2000/svg">
<path d="M6.53846 0L6.29769 0.312308L5.38462 1.53846H4.61538V0.769231H1.53846V1.53846H0V15.3846H20V1.53846H14.6154L13.7015 0.312308L13.4615 0H6.53846ZM7.30769 1.53846H12.6923L13.6062 2.76462L13.8462 3.07692H18.4615V6.15385H13.99C13.1885 4.78154 11.6977 3.84615 10 3.84615C8.30308 3.84615 6.81154 4.78154 6.00923 6.15385H1.53846V3.07692H6.15385L6.39462 2.76462L7.30769 1.53846ZM15.3846 3.84615V5.38462H16.9231V3.84615H15.3846ZM10 5.38462C11.7077 5.38462 13.0769 6.75385 13.0769 8.46154C13.0769 10.1692 11.7077 11.5385 10 11.5385C8.29231 11.5385 6.92308 10.1692 6.92308 8.46154C6.92308 6.75385 8.29231 5.38462 10 5.38462ZM1.53846 7.69231H5.45692C5.41174 7.9463 5.38755 8.20358 5.38462 8.46154C5.38462 11.0015 7.46 13.0769 10 13.0769C12.54 13.0769 14.6154 11.0015 14.6154 8.46154C14.6154 8.20231 14.5846 7.94 14.5431 7.69231H18.4615V13.8462H1.53846V7.69231Z" fill="white"/>
</svg>
